<?xml version="1.0" standalone="no"?><!DOCTYPE svg PUBLIC "-//W3C//DTD SVG 1.1//EN" "http://www.w3.org/Graphics/SVG/1.1/DTD/svg11.dtd"><svg t="1588760849712" class="icon" viewBox="0 0 1024 1024" version="1.1" xmlns="http://www.w3.org/2000/svg" p-id="785" xmlns:xlink="http://www.w3.org/1999/xlink" width="200" height="200"><defs><style type="text/css"></style></defs><path d="M832 384l110.848 64-32 55.424-110.848-64zM832 256h128v64h-128zM224 439.424l-110.848 64-32-55.424L192 384zM832 960h-64v-160a160.192 160.192 0 0 0-160-160h-192a160.192 160.192 0 0 0-160 160v160H192v-160a224.256 224.256 0 0 1 224-224h192a224.256 224.256 0 0 1 224 224zM512 128a160 160 0 1 1-160 160 160 160 0 0 1 160-160m0-64a224 224 0 1 0 224 224 224 224 0 0 0-224-224zM800 136.576l110.848-64 32 55.424L832 192zM64 256h128v64H64zM192 192L81.152 128l32-55.424 110.848 64z" p-id="786" fill="#515151"></path></svg>