<?xml version="1.0" standalone="no"?><!DOCTYPE svg PUBLIC "-//W3C//DTD SVG 1.1//EN" "http://www.w3.org/Graphics/SVG/1.1/DTD/svg11.dtd"><svg t="1588761765387" class="icon" viewBox="0 0 1024 1024" version="1.1" xmlns="http://www.w3.org/2000/svg" p-id="3216" xmlns:xlink="http://www.w3.org/1999/xlink" width="200" height="200"><defs><style type="text/css"></style></defs><path d="M339.050508 453.489398c21.10569 21.106714 46.831608 38.301328 74.392314 49.715285 27.541263 11.413957 57.883315 17.443277 87.748507 17.443277 29.866215 0 60.208267-6.02932 87.748507-17.443277 27.570939-11.425214 53.295833-28.619828 74.382081-49.715285 21.106714-21.097504 38.302351-46.821375 49.705052-74.383104 11.413957-27.560706 17.454534-57.902758 17.454534-87.748507 0-29.843702-6.039553-60.185754-17.454534-87.73725-11.394515-27.541263-28.578896-53.254901-49.705052-74.393337-21.086248-21.095457-46.811142-38.291095-74.382081-49.715285-55.081503-22.830985-120.41551-22.830985-175.497013 0-27.560706 11.414981-53.2856 28.608571-74.402547 49.715285-21.096481 21.12718-38.269605 46.842865-49.684586 74.382081-11.425214 27.570939-17.464767 57.915038-17.464767 87.748507 0 29.835516 6.039553 60.176544 17.464767 87.748507C300.779879 406.689513 317.96426 432.403151 339.050508 453.489398zM318.804395 215.814254c9.827833-23.711028 24.62484-45.86663 42.784432-64.045665 18.181081-18.170848 40.325427-32.978089 64.057945-42.805922 23.711028-9.827833 49.830919-15.014972 75.544557-15.014972 25.714661 0 51.833529 5.188162 75.544557 15.014972 23.743774 9.838066 45.887097 24.635073 64.047712 42.805922 18.181081 18.190291 32.978089 40.345893 42.793642 64.045665 9.827833 23.722284 15.027252 49.850361 15.027252 75.544557 0 25.694195-5.199419 51.823296-15.027252 75.55479-9.826809 23.732517-24.623817 45.867654-42.793642 64.037479-18.160615 18.169825-40.303938 32.967856-64.047712 42.805922-47.423079 19.653619-103.666034 19.653619-151.089114 0-23.731494-9.827833-45.876863-24.636097-64.057945-42.805922-18.149359-18.149359-32.946366-40.294728-42.784432-64.045665-9.837042-23.743774-15.035438-49.862641-15.035438-75.546603C303.768957 265.675872 308.967352 239.555981 318.804395 215.814254z" p-id="3217" fill="#515151"></path><path d="M569.679166 929.73201 317.123103 929.73201c-89.293699 0-161.933089-72.6486-161.933089-161.943322s72.63939-161.943322 161.933089-161.943322l368.123149 0c72.931033 0 137.236618 49.28959 156.363234 119.874181 2.312672 8.499581 11.029194 13.480013 19.559475 11.218506 8.498558-2.304486 13.510712-11.062963 11.217483-19.560498-22.89136-84.438111-99.848079-143.410224-187.140191-143.410224L317.123103 573.96733c-106.872053 0-193.811124 86.949304-193.811124 193.821357s86.938048 193.821357 193.811124 193.821357l252.556063 0c8.800433 0 15.939017-7.139607 15.939017-15.939017C585.618183 936.871617 578.479599 929.73201 569.679166 929.73201z" p-id="3218" fill="#515151"></path><path d="M899.897006 869.047906c-2.148943-6.548136-8.260128-10.979052-15.152095-10.979052L466.81131 858.068853c-8.79941 0-15.939017 7.139607-15.939017 15.937994 0 8.800433 7.139607 15.939017 15.939017 15.939017l369.244692 0-56.657394 41.539069c-7.098675 5.209652-8.633634 15.181771-3.435239 22.279423 3.124154 4.264117 7.968485 6.516414 12.867052 6.516414 3.26844 0 6.578836-1.006933 9.413394-3.082198l95.924723-70.333882C899.73123 882.786815 902.034692 875.596042 899.897006 869.047906z" p-id="3219" fill="#515151"></path><path d="M572.15966 735.588311c7.098675-5.208629 8.633634-15.180747 3.435239-22.278399-5.220908-7.118118-15.213493-8.623401-22.280446-3.435239l-95.924723 70.356394c-5.562692 4.078899-7.866155 11.270694-5.728468 17.817808 2.14792 6.547113 8.260128 10.979052 15.150048 10.979052l417.934624 0c8.801457 0 15.939017-7.139607 15.939017-15.940041 0-8.798387-7.138584-15.936971-15.939017-15.936971L515.491009 777.150916 572.15966 735.588311z" p-id="3220" fill="#515151"></path></svg>