<?xml version="1.0" standalone="no"?><!DOCTYPE svg PUBLIC "-//W3C//DTD SVG 1.1//EN" "http://www.w3.org/Graphics/SVG/1.1/DTD/svg11.dtd"><svg t="1589359356886" class="icon" viewBox="0 0 1079 1024" version="1.1" xmlns="http://www.w3.org/2000/svg" p-id="2161" xmlns:xlink="http://www.w3.org/1999/xlink" width="210.7421875" height="200"><defs><style type="text/css"></style></defs><path d="M704.0768 512.119467h-328.704c-20.932267 0-37.922133 17.1264-37.922133 38.2208 0 21.128533 16.989867 38.2208 37.922133 38.2208h328.704c20.9408 0 37.9392-17.1008 37.9392-38.2208 0-21.0944-16.9984-38.2208-37.9392-38.2208zM704.0768 690.5344h-328.704c-20.932267 0-37.922133 17.1264-37.922133 38.237867 0 21.0944 16.989867 38.2208 37.922133 38.2208h328.704c20.9408 0 37.9392-17.1264 37.9392-38.2208 0-21.111467-16.9984-38.237867-37.9392-38.237867zM890.820267 230.229333a51.285333 51.285333 0 0 0 0-72.098133 50.286933 50.286933 0 0 0-71.509334 0L677.205333 301.3376l71.517867 72.081067 142.097067-143.189334zM375.3728 410.171733h126.421333c20.9408 0 37.9392-17.1264 37.9392-38.237866 0-21.0944-16.9984-38.229333-37.9392-38.229334H375.3728c-20.932267 0-37.922133 17.134933-37.922133 38.229334 0 21.111467 16.989867 38.237867 37.922133 38.237866zM715.076267 407.3472l15.7696-15.8976-71.509334-72.081067-15.7696 15.889067a51.259733 51.259733 0 0 0 0 72.098133 50.295467 50.295467 0 0 0 71.509334-0.008533z" fill="#ffffff" p-id="2162"></path><path d="M843.153067 384.674133v433.28c0 28.117333-22.638933 50.978133-50.568534 50.978134H286.8736c-27.9296 0-50.568533-22.8608-50.568533-50.978134V257.245867c0-28.151467 22.638933-50.9696 50.568533-50.9696h379.281067v-76.458667H236.305067c-41.9072 0-75.861333 34.2272-75.861334 76.458667v662.656c0 42.2144 33.954133 76.450133 75.861334 76.450133h606.839466c41.9072 0 75.861333-34.235733 75.861334-76.450133V384.674133h-75.8528z" fill="#ffffff" p-id="2163"></path></svg>