<?xml version="1.0" standalone="no"?><!DOCTYPE svg PUBLIC "-//W3C//DTD SVG 1.1//EN" "http://www.w3.org/Graphics/SVG/1.1/DTD/svg11.dtd"><svg t="1589365046301" class="icon" viewBox="0 0 1024 1024" version="1.1" xmlns="http://www.w3.org/2000/svg" p-id="1346" xmlns:xlink="http://www.w3.org/1999/xlink" width="200" height="200"><defs><style type="text/css"></style></defs><path d="M885.7 130.4H140.3c-41.2 0-74.7 33.5-74.7 74.7v620.1c0 41.2 33.5 74.7 74.7 74.7h745.3c41.2 0 74.8-33.5 74.8-74.7V205c0-41.1-33.5-74.6-74.7-74.6zM140.3 191h745.4c7.6 0 14 6.4 14 14v535.3l-229-328.4c-9.3-13.4-25.2-21.5-42.1-21.5-17 0-32.7 8.1-42 21.5L424.2 646.1l-89.6-96.3c-10.4-11.2-25.8-17.1-41.4-16-15.7 1-30 9-38.6 21.4L126.3 740.5V205c0-7.6 6.4-14 14-14z" fill="#2c2c2c" p-id="1347"></path><path d="M273 390.4c37.8 0 68.5-30.7 68.5-68.5s-30.7-68.5-68.5-68.5-68.5 30.7-68.5 68.5 30.8 68.5 68.5 68.5z m0-89.6c11.6 0 21.1 9.5 21.1 21.1S284.7 343 273 343c-11.6 0-21.1-9.5-21.1-21.1 0.2-11.6 9.6-21.1 21.1-21.1z" fill="#2c2c2c" p-id="1348"></path></svg>