<?xml version="1.0" standalone="no"?><!DOCTYPE svg PUBLIC "-//W3C//DTD SVG 1.1//EN" "http://www.w3.org/Graphics/SVG/1.1/DTD/svg11.dtd"><svg t="1589186707316" class="icon" viewBox="0 0 1024 1024" version="1.1" xmlns="http://www.w3.org/2000/svg" p-id="4627" xmlns:xlink="http://www.w3.org/1999/xlink" width="200" height="200"><defs><style type="text/css"></style></defs><path d="M513 98.2c-200.6 0-363.1 162.6-363.1 363.1s172 355 363.1 466.9c201.9-112 363.1-266.3 363.1-466.9S713.5 98.2 513 98.2z m0.7 770c-207-126.9-311.9-263.7-311.9-406.8 0-171.6 139.6-311.2 311.3-311.2s311.3 139.6 311.3 311.2c-0.1 149.7-104.6 286.5-310.7 406.8z" p-id="4628" fill="#515151"></path><path d="M513 305.7c-71.6 0-129.7 58.1-129.7 129.7S441.4 565.1 513 565.1 642.7 507 642.7 435.4 584.6 305.7 513 305.7z m0 207.5c-42.9 0-77.8-34.9-77.8-77.8s34.9-77.8 77.8-77.8 77.8 34.9 77.8 77.8-34.9 77.8-77.8 77.8z" p-id="4629" fill="#515151"></path></svg>