<?xml version="1.0" standalone="no"?><!DOCTYPE svg PUBLIC "-//W3C//DTD SVG 1.1//EN" "http://www.w3.org/Graphics/SVG/1.1/DTD/svg11.dtd"><svg t="1588762863226" class="icon" viewBox="0 0 1024 1024" version="1.1" xmlns="http://www.w3.org/2000/svg" p-id="3294" xmlns:xlink="http://www.w3.org/1999/xlink" width="200" height="200"><defs><style type="text/css"></style></defs><path d="M510.008889 582.883556a199.111111 199.111111 0 1 1 0-398.222223 199.111111 199.111111 0 0 1 0 398.222223z m0-56.888889a142.222222 142.222222 0 1 0 0-284.444445 142.222222 142.222222 0 0 0 0 284.444445z" p-id="3295" fill="#515151"></path><path d="M724.707556 611.271111a28.444444 28.444444 0 0 1-39.025778 41.358222 256 256 0 0 0-431.616 186.254223 28.444444 28.444444 0 0 1-56.888889 0 312.888889 312.888889 0 0 1 527.530667-227.612445z" p-id="3296" fill="#515151"></path><path d="M812.373333 751.672889h85.333334a28.444444 28.444444 0 1 1 0 56.888889h-85.333334v85.333333a28.444444 28.444444 0 1 1-56.888889 0v-85.333333h-85.333333a28.444444 28.444444 0 0 1 0-56.888889h85.333333v-85.333333a28.444444 28.444444 0 0 1 56.888889 0v85.333333z" p-id="3297" fill="#515151"></path></svg>