<?xml version="1.0" standalone="no"?><!DOCTYPE svg PUBLIC "-//W3C//DTD SVG 1.1//EN" "http://www.w3.org/Graphics/SVG/1.1/DTD/svg11.dtd"><svg t="1588760886029" class="icon" viewBox="0 0 1024 1024" version="1.1" xmlns="http://www.w3.org/2000/svg" p-id="989" xmlns:xlink="http://www.w3.org/1999/xlink" width="200" height="200"><defs><style type="text/css"></style></defs><path d="M768 96H256a64 64 0 0 0-64 64v704a64 64 0 0 0 64 64h512a64 64 0 0 0 64-64V160a64 64 0 0 0-64-64z m0 64v192H256V160zM256 608v-192h512v192z m0 256v-192h512v192z" p-id="990" fill="#515151"></path><path d="M352 256m-32 0a32 32 0 1 0 64 0 32 32 0 1 0-64 0Z" p-id="991" fill="#515151"></path><path d="M352 512m-32 0a32 32 0 1 0 64 0 32 32 0 1 0-64 0Z" p-id="992" fill="#515151"></path><path d="M352 768m-32 0a32 32 0 1 0 64 0 32 32 0 1 0-64 0Z" p-id="993" fill="#515151"></path></svg>