<?xml version="1.0" standalone="no"?><!DOCTYPE svg PUBLIC "-//W3C//DTD SVG 1.1//EN" "http://www.w3.org/Graphics/SVG/1.1/DTD/svg11.dtd"><svg t="1588762838214" class="icon" viewBox="0 0 1024 1024" version="1.1" xmlns="http://www.w3.org/2000/svg" p-id="2472" xmlns:xlink="http://www.w3.org/1999/xlink" width="200" height="200"><defs><style type="text/css"></style></defs><path d="M768 533.333333c0 25.6-17.066667 42.666667-42.666667 42.666667L298.666667 576c-25.6 0-42.666667-17.066667-42.666667-42.666667 0-25.6 17.066667-42.666667 42.666667-42.666667l426.666667 0C746.666667 490.666667 768 507.733333 768 533.333333zM341.333333 320l341.333333 0c25.6 0 42.666667 17.066667 42.666667 42.666667 0 25.6-17.066667 42.666667-42.666667 42.666667L341.333333 405.333333c-25.6 0-42.666667-17.066667-42.666667-42.666667C298.666667 337.066667 315.733333 320 341.333333 320zM42.666667 648.533333l123.733333-554.666667C170.666667 72.533333 196.266667 64 221.866667 64c4.266667 0 25.6 0 34.133333 0l85.333333 0c25.6 0 42.666667 17.066667 42.666667 42.666667s-17.066667 42.666667-42.666667 42.666667L256 149.333333c-4.266667 0 4.266667 0 0 0l-123.733333 512 85.333333 0c21.333333 72.533333 145.066667 128 294.4 128 149.333333 0 273.066667-55.466667 294.4-128l85.333333 0L768 149.333333c-4.266667 0 4.266667 0 0 0l-85.333333 0c-25.6 0-42.666667-17.066667-42.666667-42.666667s17.066667-42.666667 42.666667-42.666667l85.333333 0c8.533333 0 34.133333 0 42.666667 0 4.266667 0 42.666667 12.8 46.933333 34.133333l123.733333 554.666667c-4.266667 12.8-4.266667 46.933333 0 51.2 4.266667 4.266667 0-8.533333 0 0l0 213.333333c0 25.6-17.066667 42.666667-42.666667 42.666667L85.333333 960c-25.6 0-42.666667-17.066667-42.666667-42.666667l0-213.333333" p-id="2473" fill="#515151"></path></svg>