<?xml version="1.0" standalone="no"?><!DOCTYPE svg PUBLIC "-//W3C//DTD SVG 1.1//EN" "http://www.w3.org/Graphics/SVG/1.1/DTD/svg11.dtd"><svg t="1589186729494" class="icon" viewBox="0 0 1024 1024" version="1.1" xmlns="http://www.w3.org/2000/svg" p-id="5698" xmlns:xlink="http://www.w3.org/1999/xlink" width="200" height="200"><defs><style type="text/css"></style></defs><path d="M849.066667 867.2H174.933333c-54.4 0-99.2-44.8-99.2-99.2V305.066667c0-54.4 44.8-99.2 99.2-99.2h674.133334c54.4 0 99.2 44.8 99.2 99.2V768c0 54.4-44.8 99.2-99.2 99.2zM174.933333 263.466667c-23.466667 0-41.6 19.2-41.6 41.6V768c0 23.466667 19.2 41.6 41.6 41.6h674.133334c23.466667 0 41.6-19.2 41.6-41.6V305.066667c0-23.466667-19.2-41.6-41.6-41.6H174.933333z" fill="#515151" p-id="5699"></path><path d="M227.2 521.6c-4.266667 0-8.533333-2.133333-11.733333-5.333333-6.4-6.4-6.4-17.066667 0-22.4l86.4-85.333334-96-90.666666c-6.4-6.4-6.4-16-1.066667-22.4 6.4-6.4 16-6.4 22.4-1.066667l107.733333 102.4c3.2 3.2 5.333333 7.466667 5.333334 11.733333 0 4.266667-2.133333 8.533333-5.333334 11.733334l-98.133333 97.066666c-1.066667 2.133333-5.333333 4.266667-9.6 4.266667zM534.4 521.6H348.8c-9.6 0-17.066667-7.466667-17.066667-17.066667s7.466667-17.066667 17.066667-17.066666H533.333333c9.6 0 17.066667 7.466667 17.066667 17.066666s-7.466667 17.066667-16 17.066667z" fill="#515151" p-id="5700"></path></svg>