<?xml version="1.0" standalone="no"?><!DOCTYPE svg PUBLIC "-//W3C//DTD SVG 1.1//EN" "http://www.w3.org/Graphics/SVG/1.1/DTD/svg11.dtd"><svg t="1589214275938" class="icon" viewBox="0 0 1024 1024" version="1.1" xmlns="http://www.w3.org/2000/svg" p-id="7753" xmlns:xlink="http://www.w3.org/1999/xlink" width="200" height="200"><defs><style type="text/css"></style></defs><path d="M299.148894 861.971499s153.977396-61.389681 152.971008-76.988698c-1.509582-27.675676-4.025553-66.421622-4.025553-66.421622 0-30.69484 24.656511-55.351351 55.351351-55.351351 30.191646 0 55.351351 24.656511 55.351352 55.351351v50.319411c0 14.592629 137.875184 159.009337 137.875184 159.009336" fill="#FDE8CF" p-id="7754"></path><path d="M366.576904 810.142506s35.223587-0.503194 55.351352 0c23.650123 0.503194 51.325799 94.097297 85.039803 90.574939 41.261916-4.025553 55.351351-100.638821 81.014251-100.638821h60.383292c60.886486 0 98.12285 12.076658 98.12285 72.963145V1016.452088H265.938084v-143.410319c0-60.383292 39.752334-60.383292 100.63882-62.899263z" fill="#14AA82" p-id="7755"></path><path d="M512 167.563636c150.958231 0 273.234398 122.276167 273.234398 273.234398v26.669288c0 150.958231-122.276167 273.234398-273.234398 273.234398s-273.234398-122.276167-273.234398-273.234398v-26.669288c0-150.958231 122.276167-273.234398 273.234398-273.234398z" fill="#FDE8CF" p-id="7756"></path><path d="M834.54742 340.662408C834.54742 190.207371 696.169042 27.675676 564.332187 10.063882H462.183784C311.225553 10.063882 194.484521 168.06683 194.484521 318.521867c0 0 3.019165 34.720393-0.503194 21.134153C213.102703 417.651106 199.516462 394.000983 255.371007 374.879607c44.784275-15.095823 117.74742 31.701229 182.156266 26.166093 44.281081-3.522359 120.766585-35.726781 160.015725-54.848157 33.210811 22.643735 94.600491 61.892875 126.804914 60.886486 72.963145-3.019165 110.199509-66.421622 110.199508-66.421621z" fill="#2B435B" p-id="7757"></path><path d="M236.752826 518.79312c-38.242752 0-68.937592-27.172482-68.937593-60.383292S198.510074 397.523342 236.752826 397.523342M789.763145 398.026536c36.73317 0 66.421622 27.172482 66.421622 60.886486s-56.35774 60.383292-66.421622 60.383292" fill="#FDE8CF" p-id="7758"></path><path d="M404.316462 425.199017c18.114988 0 33.210811 15.095823 33.210811 33.210811s-15.095823 33.210811-33.210811 33.210811c-18.114988 0-33.210811-14.592629-33.210811-33.210811 0-18.114988 14.592629-33.210811 33.210811-33.210811z" fill="#012428" p-id="7759"></path><path d="M603.078133 458.409828m-33.210811 0a33.210811 33.210811 0 1 0 66.421621 0 33.210811 33.210811 0 1 0-66.421621 0Z" fill="#012428" p-id="7760"></path><path d="M600.058968 466.460934m-24.656511 0a24.656511 24.656511 0 1 0 49.313022 0 24.656511 24.656511 0 1 0-49.313022 0Z" fill="#012428" p-id="7761"></path><path d="M365.570516 524.328256c21.134152 0 38.745946 8.5543 38.745946 19.121375s-17.1086 19.121376-38.745946 19.121376-38.745946-8.5543-38.745946-19.121376 17.1086-19.121376 38.745946-19.121375zM657.92629 524.328256c21.134152 0 38.745946 8.5543 38.745946 19.121375s-17.1086 19.121376-38.745946 19.121376-38.745946-8.5543-38.745946-19.121376 17.611794-19.121376 38.745946-19.121375z" fill="#FA6E6E" p-id="7762"></path><path d="M580.937592 579.679607c-0.503194 39.752334-32.707617 71.453563-72.459951 70.950368-39.24914-0.503194-70.950369-32.204423-70.950368-70.950368" fill="#EB4545" p-id="7763"></path></svg>