<?xml version="1.0" standalone="no"?><!DOCTYPE svg PUBLIC "-//W3C//DTD SVG 1.1//EN" "http://www.w3.org/Graphics/SVG/1.1/DTD/svg11.dtd"><svg t="1588761667888" class="icon" viewBox="0 0 1024 1024" version="1.1" xmlns="http://www.w3.org/2000/svg" p-id="1568" xmlns:xlink="http://www.w3.org/1999/xlink" width="200" height="200"><defs><style type="text/css"></style></defs><path d="M494.388428 398.292468c21.856412 0 39.377668-17.701887 39.377668-39.377668v-103.140589c0-21.856412-17.701887-39.377668-39.377668-39.377668H305.267243c-21.856412 0-39.377668 17.701887-39.377668 39.377668v103.140589c0 21.856412 17.701887 39.377668 39.377668 39.377668h189.121185z m-192.191921-39.377668v-103.140589c0-1.625684 1.264421-3.070736 3.070736-3.070736h189.121185c1.625684 0 3.070736 1.264421 3.070736 3.070736v103.140589c0 1.625684-1.264421 3.070736-3.070736 3.070735H305.267243c-1.625684 0-3.070736-1.264421-3.070736-3.070735z" p-id="1569" fill="#515151"></path><path d="M900.448051 269.321573c0-0.180632 0-0.180632 0 0-0.180632-0.903158-0.180632-1.806315-0.361263-2.709472s-0.361263-1.625684-0.722526-2.528841c0-0.180632 0-0.180632-0.180632-0.361263-0.180632-0.722526-0.541895-1.445052-0.722526-2.34821 0-0.180632-0.180632-0.361263-0.180631-0.541894-0.180632-0.541895-0.541895-1.083789-0.903158-1.625684-0.180632-0.180632-0.361263-0.541895-0.361263-0.722526-0.361263-0.541895-0.541895-0.903158-0.903157-1.445052-0.180632-0.361263-0.361263-0.541895-0.541895-0.903157-0.361263-0.361263-0.541895-0.722526-0.903157-1.083789-0.180632-0.361263-0.541895-0.541895-0.722526-0.722526l-1.083789-1.083789-0.361263-0.361263L663.278885 41.364615l-0.541894-0.541895c-0.361263-0.180632-0.541895-0.541895-0.903158-0.722526-0.361263-0.180632-0.541895-0.541895-0.903157-0.722526-0.361263-0.180632-0.722526-0.541895-1.083789-0.722526-0.361263-0.180632-0.541895-0.361263-0.903158-0.541895-0.361263-0.180632-0.722526-0.361263-1.083789-0.722526-0.361263-0.180632-0.541895-0.361263-0.903157-0.361263-0.361263-0.180632-0.903158-0.361263-1.264421-0.541894-0.361263-0.180632-0.541895-0.180632-0.903158-0.361263s-0.903158-0.361263-1.26442-0.541895c-0.361263-0.180632-0.722526-0.180632-1.083789-0.180631-0.361263-0.180632-0.903158-0.180632-1.264421-0.361263-0.361263 0-0.903158-0.180632-1.26442-0.180632-0.361263 0-0.722526-0.180632-1.083789-0.180631-0.903158 0-1.625684-0.180632-2.709473-0.180632H149.924149c-14.631152 0-26.552831 11.921679-26.552831 26.552832v902.434997c0 14.631152 11.921679 26.552831 26.552831 26.552831h724.332334c14.631152 0 26.552831-11.921679 26.552831-26.552831V271.850415c-0.180632-0.903158-0.361263-1.806315-0.361263-2.528842zM671.949197 121.384371l134.209208 123.913212H671.949197V121.384371zM176.47698 936.754983V87.425648h442.547187v184.424767c0 14.631152 11.921679 26.552831 26.552831 26.552831h202.126653v638.351737H176.47698z" p-id="1570" fill="#515151"></path><path d="M733.002646 764.793791H308.337978c-11.741048 0-25.288411 7.22526-25.28841 21.495149 0 11.921679 10.476627 21.495149 25.28841 21.495149h430.806139c16.618098 0 19.146939-7.947786 19.14694-21.495149-0.180632-13.1861-5.418945-21.495149-25.288411-21.495149zM733.002646 569.531134H512.993473c-11.741048 0-25.288411 7.22526-25.28841 21.495149 0 11.921679 10.476627 21.495149 25.28841 21.495149h226.150644c16.618098 0 19.146939-7.947786 19.14694-21.495149-0.180632-13.1861-5.418945-21.495149-25.288411-21.495149z" p-id="1571" fill="#515151"></path></svg>